<svg style="width:24px;height:24px" viewBox="0 0 24 24">
  <path fill="currentColor" d="M 12 2 C 6.46 2 2 6.46 2 12 C 2 17.54 6.46 22 12 22 C 17.54 22 22 17.54 22 12 C 22 6.46 17.54 2 12 2 z M 12 3.9707031 C 16.41 3.9707031 20.029297 7.59 20.029297 12 C 20.029297 16.41 16.41 20.029297 12 20.029297 C 7.59 20.029297 3.9707031 16.41 3.9707031 12 C 3.9707031 7.59 7.59 3.9707031 12 3.9707031 z M 8.8964844 8.0058594 A 1 1 0 0 0 8.2246094 8.3710938 A 1 1 0 0 0 8.3710938 9.7773438 L 11.369141 12.212891 A 1.0001 1.0001 0 0 0 12 12.435547 A 1.0001 1.0001 0 0 0 12.628906 12.212891 L 15.628906 9.7773438 A 1 1 0 0 0 15.775391 8.3710938 A 1 1 0 0 0 14.369141 8.2246094 L 11.998047 10.148438 L 9.6308594 8.2246094 A 1 1 0 0 0 8.8964844 8.0058594 z M 8.8964844 12.441406 A 1 1 0 0 0 8.2246094 12.806641 A 1 1 0 0 0 8.3710938 14.212891 L 11.369141 16.648438 A 1.0001 1.0001 0 0 0 12 16.871094 A 1.0001 1.0001 0 0 0 12.628906 16.648438 L 15.628906 14.212891 A 1 1 0 0 0 15.775391 12.806641 A 1 1 0 0 0 14.369141 12.660156 L 11.998047 14.583984 L 9.6308594 12.660156 A 1 1 0 0 0 8.8964844 12.441406 z " />
</svg>