<svg style="width:24px;height:24px" viewBox="0 0 24 24">
  <path fill="currentColor" d="M 12 2 C 6.46 2 2 6.46 2 12 C 2 17.54 6.46 22 12 22 C 17.54 22 22 17.54 22 12 C 22 6.46 17.54 2 12 2 z M 12 7.5644531 C 12.228941 7.5645001 12.450935 7.6430944 12.628906 7.7871094 L 15.390625 10.029297 L 15.628906 10.222656 C 16.05755 10.570602 16.123121 11.200087 15.775391 11.628906 C 15.427445 12.05755 14.797959 12.123122 14.369141 11.775391 L 11.998047 9.8515625 L 9.6308594 11.775391 C 9.2020408 12.123122 8.5725553 12.05755 8.2246094 11.628906 C 7.8768786 11.200088 7.9424503 10.570602 8.3710938 10.222656 L 11.369141 7.7871094 C 11.547632 7.6426722 11.770389 7.5640523 12 7.5644531 z M 12 12 C 12.228941 12.000047 12.450935 12.078641 12.628906 12.222656 L 15.628906 14.658203 C 16.05755 15.006149 16.123122 15.635634 15.775391 16.064453 C 15.427445 16.493097 14.797959 16.558668 14.369141 16.210938 L 11.998047 14.287109 L 9.6308594 16.210938 C 9.2020408 16.558669 8.5725553 16.493097 8.2246094 16.064453 C 7.8768783 15.635635 7.9424499 15.006149 8.3710938 14.658203 L 11.369141 12.222656 C 11.547632 12.07822 11.770389 11.999599 12 12 z " />
</svg>
