<svg style="width:24px;height:24px" viewBox="0 0 24 24">
  <path fill="currentColor" d="M 12 2 C 6.46 2 2 6.46 2 12 C 2 17.54 6.46 22 12 22 C 17.54 22 22 17.54 22 12 C 22 6.46 17.54 2 12 2 z M 12 3.9707031 C 16.41 3.9707031 20.029297 7.59 20.029297 12 C 20.029297 16.41 16.41 20.029297 12 20.029297 C 7.59 20.029297 3.9707031 16.41 3.9707031 12 C 3.9707031 7.59 7.59 3.9707031 12 3.9707031 z M 12 7.1308594 A 1.0001 1.0001 0 0 0 11.369141 7.3535156 L 8.3710938 9.7890625 A 1 1 0 0 0 8.2246094 11.195312 A 1 1 0 0 0 9.6308594 11.341797 L 11.998047 9.4179688 L 14.369141 11.341797 A 1 1 0 0 0 15.775391 11.195312 A 1 1 0 0 0 15.628906 9.7890625 L 12.628906 7.3535156 A 1.0001 1.0001 0 0 0 12 7.1308594 z M 12 11.566406 A 1.0001 1.0001 0 0 0 11.369141 11.789062 L 8.3710938 14.224609 A 1 1 0 0 0 8.2246094 15.630859 A 1 1 0 0 0 9.6308594 15.777344 L 11.998047 13.853516 L 14.369141 15.777344 A 1 1 0 0 0 15.775391 15.630859 A 1 1 0 0 0 15.628906 14.224609 L 12.628906 11.789062 A 1.0001 1.0001 0 0 0 12 11.566406 z " />
</svg>