<svg style="width:24px;height:24px" viewBox="0 0 24 24">
  <path fill="currentColor" d="M 12 2 C 6.46 2 2 6.46 2 12 C 2 17.54 6.46 22 12 22 C 17.54 22 22 17.54 22 12 C 22 6.46 17.54 2 12 2 z M 8.8964844 7.5703125 A 1 1 0 0 1 9.6308594 7.7890625 L 11.998047 9.7128906 L 14.369141 7.7890625 A 1 1 0 0 1 15.775391 7.9355469 A 1 1 0 0 1 15.628906 9.3417969 L 12.628906 11.777344 A 1.0001 1.0001 0 0 1 12 12 A 1.0001 1.0001 0 0 1 11.369141 11.777344 L 8.3710938 9.3417969 A 1 1 0 0 1 8.2246094 7.9355469 A 1 1 0 0 1 8.8964844 7.5703125 z M 8.8964844 12.005859 A 1 1 0 0 1 9.6308594 12.224609 L 11.998047 14.148438 L 14.369141 12.224609 A 1 1 0 0 1 15.775391 12.371094 A 1 1 0 0 1 15.628906 13.777344 L 12.628906 16.212891 A 1.0001 1.0001 0 0 1 12 16.435547 A 1.0001 1.0001 0 0 1 11.369141 16.212891 L 8.3710938 13.777344 A 1 1 0 0 1 8.2246094 12.371094 A 1 1 0 0 1 8.8964844 12.005859 z " />
</svg>
