<svg style="width:24px;height:24px" viewBox="0 0 24 24">
  <path fill="currentColor" d="M 12 2 C 6.46 2 2 6.46 2 12 C 2 17.54 6.46 22 12 22 C 17.54 22 22 17.54 22 12 C 22 6.46 17.54 2 12 2 z M 12 3.9707031 C 16.41 3.9707031 20.029297 7.59 20.029297 12 C 20.029297 16.41 16.41 20.029297 12 20.029297 C 7.59 20.029297 3.9707031 16.41 3.9707031 12 C 3.9707031 7.59 7.59 3.9707031 12 3.9707031 z M 9 9 A 1 1 0 0 0 8 10 A 1 1 0 0 0 9 11 L 15 11 A 1 1 0 0 0 16 10 A 1 1 0 0 0 15 9 L 9 9 z M 9 13 A 1 1 0 0 0 8 14 A 1 1 0 0 0 9 15 L 15 15 A 1 1 0 0 0 16 14 A 1 1 0 0 0 15 13 L 9 13 z " />
</svg>